<mxfile host="app.diagrams.net" agent="Mozilla/5.0 (Windows NT 10.0; Win64; x64) AppleWebKit/537.36 (KHTML, like Gecko) Chrome/134.0.0.0 Safari/537.36" version="26.1.3">
  <diagram name="Page-1" id="Cur46OdMAbrVe5PBTX_T">
    <mxGraphModel dx="1050" dy="557" grid="1" gridSize="10" guides="1" tooltips="1" connect="1" arrows="1" fold="1" page="1" pageScale="1" pageWidth="1100" pageHeight="1700" math="0" shadow="0">
      <root>
        <mxCell id="0" />
        <mxCell id="1" parent="0" />
        <UserObject label="Home" linkTarget="_blank" id="k5f_NmOQ_vTU5sLY7TT8-1">
          <mxCell style="rounded=0;whiteSpace=wrap;html=1;fillColor=#d5e8d4;strokeColor=#82b366;" vertex="1" parent="1">
            <mxGeometry x="360" y="80" width="120" height="60" as="geometry" />
          </mxCell>
        </UserObject>
        <mxCell id="k5f_NmOQ_vTU5sLY7TT8-2" value="WISDOM SYSTEM v.2 (Phase 1) Site Map" style="text;strokeColor=none;fillColor=none;html=1;fontSize=24;fontStyle=1;verticalAlign=middle;align=center;" vertex="1" parent="1">
          <mxGeometry x="375" y="20" width="100" height="40" as="geometry" />
        </mxCell>
        <mxCell id="k5f_NmOQ_vTU5sLY7TT8-3" value="Merchandised System" style="rounded=0;whiteSpace=wrap;html=1;fillColor=#dae8fc;strokeColor=#6c8ebf;" vertex="1" parent="1">
          <mxGeometry x="360" y="173" width="120" height="60" as="geometry" />
        </mxCell>
        <mxCell id="k5f_NmOQ_vTU5sLY7TT8-4" value="Customer Order Import Management" style="rounded=0;whiteSpace=wrap;html=1;fillColor=#fff2cc;strokeColor=#d6b656;" vertex="1" parent="1">
          <mxGeometry x="40" y="280" width="120" height="60" as="geometry" />
        </mxCell>
        <mxCell id="k5f_NmOQ_vTU5sLY7TT8-5" value="Order Information Management" style="rounded=0;whiteSpace=wrap;html=1;fillColor=#fff2cc;strokeColor=#d6b656;" vertex="1" parent="1">
          <mxGeometry x="240" y="280" width="120" height="60" as="geometry" />
        </mxCell>
        <mxCell id="k5f_NmOQ_vTU5sLY7TT8-6" value="Style Information Management" style="rounded=0;whiteSpace=wrap;html=1;fillColor=#fff2cc;strokeColor=#d6b656;" vertex="1" parent="1">
          <mxGeometry x="480" y="280" width="120" height="60" as="geometry" />
        </mxCell>
        <mxCell id="k5f_NmOQ_vTU5sLY7TT8-7" value="Order Information Tracking" style="rounded=0;whiteSpace=wrap;html=1;fillColor=#fff2cc;strokeColor=#d6b656;" vertex="1" parent="1">
          <mxGeometry x="680" y="280" width="120" height="60" as="geometry" />
        </mxCell>
        <mxCell id="k5f_NmOQ_vTU5sLY7TT8-8" value="" style="endArrow=none;html=1;rounded=0;" edge="1" parent="1">
          <mxGeometry width="50" height="50" relative="1" as="geometry">
            <mxPoint x="100" y="260" as="sourcePoint" />
            <mxPoint x="740" y="260" as="targetPoint" />
          </mxGeometry>
        </mxCell>
        <mxCell id="k5f_NmOQ_vTU5sLY7TT8-9" value="" style="endArrow=classic;html=1;rounded=0;exitX=0.5;exitY=1;exitDx=0;exitDy=0;entryX=0.5;entryY=0;entryDx=0;entryDy=0;" edge="1" parent="1" source="k5f_NmOQ_vTU5sLY7TT8-1" target="k5f_NmOQ_vTU5sLY7TT8-3">
          <mxGeometry width="50" height="50" relative="1" as="geometry">
            <mxPoint x="400" y="420" as="sourcePoint" />
            <mxPoint x="450" y="370" as="targetPoint" />
          </mxGeometry>
        </mxCell>
        <mxCell id="k5f_NmOQ_vTU5sLY7TT8-10" value="" style="endArrow=classic;html=1;rounded=0;exitX=0.5;exitY=1;exitDx=0;exitDy=0;" edge="1" parent="1" source="k5f_NmOQ_vTU5sLY7TT8-3">
          <mxGeometry width="50" height="50" relative="1" as="geometry">
            <mxPoint x="420" y="240" as="sourcePoint" />
            <mxPoint x="420" y="260" as="targetPoint" />
          </mxGeometry>
        </mxCell>
        <mxCell id="k5f_NmOQ_vTU5sLY7TT8-11" value="" style="endArrow=classic;html=1;rounded=0;" edge="1" parent="1">
          <mxGeometry width="50" height="50" relative="1" as="geometry">
            <mxPoint x="101" y="260" as="sourcePoint" />
            <mxPoint x="101" y="280" as="targetPoint" />
          </mxGeometry>
        </mxCell>
        <mxCell id="k5f_NmOQ_vTU5sLY7TT8-12" value="" style="endArrow=classic;html=1;rounded=0;" edge="1" parent="1">
          <mxGeometry width="50" height="50" relative="1" as="geometry">
            <mxPoint x="299" y="260" as="sourcePoint" />
            <mxPoint x="299" y="280" as="targetPoint" />
          </mxGeometry>
        </mxCell>
        <mxCell id="k5f_NmOQ_vTU5sLY7TT8-13" value="" style="endArrow=classic;html=1;rounded=0;" edge="1" parent="1">
          <mxGeometry width="50" height="50" relative="1" as="geometry">
            <mxPoint x="540" y="261" as="sourcePoint" />
            <mxPoint x="540" y="281" as="targetPoint" />
          </mxGeometry>
        </mxCell>
        <mxCell id="k5f_NmOQ_vTU5sLY7TT8-14" value="" style="endArrow=classic;html=1;rounded=0;" edge="1" parent="1">
          <mxGeometry width="50" height="50" relative="1" as="geometry">
            <mxPoint x="740" y="261" as="sourcePoint" />
            <mxPoint x="740" y="281" as="targetPoint" />
          </mxGeometry>
        </mxCell>
        <mxCell id="k5f_NmOQ_vTU5sLY7TT8-16" value="Factory Hub Order" style="rounded=0;whiteSpace=wrap;html=1;fillColor=#ffe6cc;strokeColor=#d79b00;" vertex="1" parent="1">
          <mxGeometry x="40" y="360" width="120" height="60" as="geometry" />
        </mxCell>
        <mxCell id="k5f_NmOQ_vTU5sLY7TT8-17" value="Factory Hub Order&amp;nbsp;&lt;span style=&quot;background-color: transparent; color: light-dark(rgb(0, 0, 0), rgb(255, 255, 255));&quot;&gt;Import&lt;/span&gt;" style="rounded=0;whiteSpace=wrap;html=1;fillColor=#ffe6cc;strokeColor=#d79b00;" vertex="1" parent="1">
          <mxGeometry x="40" y="440" width="120" height="60" as="geometry" />
        </mxCell>
        <mxCell id="k5f_NmOQ_vTU5sLY7TT8-18" value="CFM Factory Hub Order To Wisdom" style="rounded=0;whiteSpace=wrap;html=1;fillColor=#ffe6cc;strokeColor=#d79b00;" vertex="1" parent="1">
          <mxGeometry x="40" y="520" width="120" height="60" as="geometry" />
        </mxCell>
        <mxCell id="k5f_NmOQ_vTU5sLY7TT8-19" value="Import Style Master" style="rounded=0;whiteSpace=wrap;html=1;fillColor=#ffe6cc;strokeColor=#d79b00;" vertex="1" parent="1">
          <mxGeometry x="40" y="600" width="120" height="60" as="geometry" />
        </mxCell>
        <mxCell id="k5f_NmOQ_vTU5sLY7TT8-20" value="Import Factory Order No. AF" style="rounded=0;whiteSpace=wrap;html=1;fillColor=#ffe6cc;strokeColor=#d79b00;" vertex="1" parent="1">
          <mxGeometry x="40" y="680" width="120" height="60" as="geometry" />
        </mxCell>
        <mxCell id="k5f_NmOQ_vTU5sLY7TT8-21" value="Import Factory Order QPP/QRS" style="rounded=0;whiteSpace=wrap;html=1;fillColor=#ffe6cc;strokeColor=#d79b00;" vertex="1" parent="1">
          <mxGeometry x="40" y="760" width="120" height="60" as="geometry" />
        </mxCell>
        <mxCell id="k5f_NmOQ_vTU5sLY7TT8-22" value="Import Factory Order SPA" style="rounded=0;whiteSpace=wrap;html=1;fillColor=#ffe6cc;strokeColor=#d79b00;" vertex="1" parent="1">
          <mxGeometry x="40" y="840" width="120" height="60" as="geometry" />
        </mxCell>
        <mxCell id="k5f_NmOQ_vTU5sLY7TT8-23" value="Import Factory Order No. (Target)" style="rounded=0;whiteSpace=wrap;html=1;fillColor=#ffe6cc;strokeColor=#d79b00;" vertex="1" parent="1">
          <mxGeometry x="40" y="1640" width="120" height="60" as="geometry" />
        </mxCell>
        <mxCell id="k5f_NmOQ_vTU5sLY7TT8-24" value="Convert Excel Order Nike PO Vertical to Horizontal (DPOM)" style="rounded=0;whiteSpace=wrap;html=1;fillColor=#ffe6cc;strokeColor=#d79b00;" vertex="1" parent="1">
          <mxGeometry x="40" y="1880" width="120" height="60" as="geometry" />
        </mxCell>
        <mxCell id="k5f_NmOQ_vTU5sLY7TT8-25" value="Update PO &amp;amp; PO Line of SPA Order" style="rounded=0;whiteSpace=wrap;html=1;fillColor=#ffe6cc;strokeColor=#d79b00;" vertex="1" parent="1">
          <mxGeometry x="40" y="1800" width="120" height="60" as="geometry" />
        </mxCell>
        <mxCell id="k5f_NmOQ_vTU5sLY7TT8-26" value="Target Read PDF File To Excel File" style="rounded=0;whiteSpace=wrap;html=1;fillColor=#ffe6cc;strokeColor=#d79b00;" vertex="1" parent="1">
          <mxGeometry x="40" y="1720" width="120" height="60" as="geometry" />
        </mxCell>
        <mxCell id="k5f_NmOQ_vTU5sLY7TT8-27" value="Import Factory Order No. Demand Pull" style="rounded=0;whiteSpace=wrap;html=1;fillColor=#ffe6cc;strokeColor=#d79b00;" vertex="1" parent="1">
          <mxGeometry x="40" y="1560" width="120" height="60" as="geometry" />
        </mxCell>
        <mxCell id="k5f_NmOQ_vTU5sLY7TT8-28" value="Import Excel File Factory Order No. Divert" style="rounded=0;whiteSpace=wrap;html=1;fillColor=#ffe6cc;strokeColor=#d79b00;" vertex="1" parent="1">
          <mxGeometry x="40" y="1320" width="120" height="60" as="geometry" />
        </mxCell>
        <mxCell id="k5f_NmOQ_vTU5sLY7TT8-29" value="Adjust PO No. After Import Excel File" style="rounded=0;whiteSpace=wrap;html=1;fillColor=#ffe6cc;strokeColor=#d79b00;" vertex="1" parent="1">
          <mxGeometry x="40" y="1480" width="120" height="60" as="geometry" />
        </mxCell>
        <mxCell id="k5f_NmOQ_vTU5sLY7TT8-30" value="Import Factory Order No. Checking" style="rounded=0;whiteSpace=wrap;html=1;fillColor=#ffe6cc;strokeColor=#d79b00;" vertex="1" parent="1">
          <mxGeometry x="40" y="1400" width="120" height="60" as="geometry" />
        </mxCell>
        <mxCell id="k5f_NmOQ_vTU5sLY7TT8-31" value="Excel Order Nike PO (DPOM) History Tracking" style="rounded=0;whiteSpace=wrap;html=1;fillColor=#ffe6cc;strokeColor=#d79b00;" vertex="1" parent="1">
          <mxGeometry x="40" y="1240" width="120" height="60" as="geometry" />
        </mxCell>
        <mxCell id="k5f_NmOQ_vTU5sLY7TT8-32" value="Import Excel Order Nike PO (DPOM)" style="rounded=0;whiteSpace=wrap;html=1;fillColor=#ffe6cc;strokeColor=#d79b00;" vertex="1" parent="1">
          <mxGeometry x="40" y="1160" width="120" height="60" as="geometry" />
        </mxCell>
        <mxCell id="k5f_NmOQ_vTU5sLY7TT8-33" value="Import Factory Order No. Excel Non Nike" style="rounded=0;whiteSpace=wrap;html=1;fillColor=#ffe6cc;strokeColor=#d79b00;" vertex="1" parent="1">
          <mxGeometry x="40" y="1080" width="120" height="60" as="geometry" />
        </mxCell>
        <mxCell id="k5f_NmOQ_vTU5sLY7TT8-34" value="Import Factory Order No." style="rounded=0;whiteSpace=wrap;html=1;fillColor=#ffe6cc;strokeColor=#d79b00;" vertex="1" parent="1">
          <mxGeometry x="40" y="1000" width="120" height="60" as="geometry" />
        </mxCell>
        <mxCell id="k5f_NmOQ_vTU5sLY7TT8-35" value="Import Update Customer PO SPA" style="rounded=0;whiteSpace=wrap;html=1;fillColor=#ffe6cc;strokeColor=#d79b00;" vertex="1" parent="1">
          <mxGeometry x="40" y="920" width="120" height="60" as="geometry" />
        </mxCell>
        <mxCell id="k5f_NmOQ_vTU5sLY7TT8-36" value="" style="endArrow=none;html=1;rounded=0;" edge="1" parent="1">
          <mxGeometry width="50" height="50" relative="1" as="geometry">
            <mxPoint x="20" y="1900" as="sourcePoint" />
            <mxPoint x="20" y="310" as="targetPoint" />
          </mxGeometry>
        </mxCell>
        <mxCell id="k5f_NmOQ_vTU5sLY7TT8-39" value="" style="endArrow=classic;html=1;rounded=0;entryX=0;entryY=0.5;entryDx=0;entryDy=0;" edge="1" parent="1">
          <mxGeometry width="50" height="50" relative="1" as="geometry">
            <mxPoint x="20" y="392" as="sourcePoint" />
            <mxPoint x="40" y="392" as="targetPoint" />
          </mxGeometry>
        </mxCell>
        <mxCell id="k5f_NmOQ_vTU5sLY7TT8-40" value="" style="endArrow=classic;html=1;rounded=0;exitX=0;exitY=0.5;exitDx=0;exitDy=0;" edge="1" parent="1" source="k5f_NmOQ_vTU5sLY7TT8-4">
          <mxGeometry width="50" height="50" relative="1" as="geometry">
            <mxPoint x="700" y="440" as="sourcePoint" />
            <mxPoint x="20" y="310" as="targetPoint" />
          </mxGeometry>
        </mxCell>
        <mxCell id="k5f_NmOQ_vTU5sLY7TT8-41" value="" style="endArrow=classic;html=1;rounded=0;entryX=0;entryY=0.5;entryDx=0;entryDy=0;" edge="1" parent="1">
          <mxGeometry width="50" height="50" relative="1" as="geometry">
            <mxPoint x="21" y="468" as="sourcePoint" />
            <mxPoint x="41" y="468" as="targetPoint" />
          </mxGeometry>
        </mxCell>
        <mxCell id="k5f_NmOQ_vTU5sLY7TT8-42" value="" style="endArrow=classic;html=1;rounded=0;entryX=0;entryY=0.5;entryDx=0;entryDy=0;" edge="1" parent="1">
          <mxGeometry width="50" height="50" relative="1" as="geometry">
            <mxPoint x="21" y="1028" as="sourcePoint" />
            <mxPoint x="41" y="1028" as="targetPoint" />
          </mxGeometry>
        </mxCell>
        <mxCell id="k5f_NmOQ_vTU5sLY7TT8-43" value="" style="endArrow=classic;html=1;rounded=0;entryX=0;entryY=0.5;entryDx=0;entryDy=0;" edge="1" parent="1">
          <mxGeometry width="50" height="50" relative="1" as="geometry">
            <mxPoint x="21" y="950" as="sourcePoint" />
            <mxPoint x="41" y="950" as="targetPoint" />
          </mxGeometry>
        </mxCell>
        <mxCell id="k5f_NmOQ_vTU5sLY7TT8-44" value="" style="endArrow=classic;html=1;rounded=0;entryX=0;entryY=0.5;entryDx=0;entryDy=0;" edge="1" parent="1">
          <mxGeometry width="50" height="50" relative="1" as="geometry">
            <mxPoint x="21" y="1108" as="sourcePoint" />
            <mxPoint x="41" y="1108" as="targetPoint" />
          </mxGeometry>
        </mxCell>
        <mxCell id="k5f_NmOQ_vTU5sLY7TT8-45" value="" style="endArrow=classic;html=1;rounded=0;entryX=0;entryY=0.5;entryDx=0;entryDy=0;" edge="1" parent="1">
          <mxGeometry width="50" height="50" relative="1" as="geometry">
            <mxPoint x="21" y="1187" as="sourcePoint" />
            <mxPoint x="41" y="1187" as="targetPoint" />
          </mxGeometry>
        </mxCell>
        <mxCell id="k5f_NmOQ_vTU5sLY7TT8-46" value="" style="endArrow=classic;html=1;rounded=0;entryX=0;entryY=0.5;entryDx=0;entryDy=0;" edge="1" parent="1">
          <mxGeometry width="50" height="50" relative="1" as="geometry">
            <mxPoint x="22" y="1269" as="sourcePoint" />
            <mxPoint x="42" y="1269" as="targetPoint" />
          </mxGeometry>
        </mxCell>
        <mxCell id="k5f_NmOQ_vTU5sLY7TT8-47" value="" style="endArrow=classic;html=1;rounded=0;entryX=0;entryY=0.5;entryDx=0;entryDy=0;" edge="1" parent="1">
          <mxGeometry width="50" height="50" relative="1" as="geometry">
            <mxPoint x="21" y="1350" as="sourcePoint" />
            <mxPoint x="41" y="1350" as="targetPoint" />
          </mxGeometry>
        </mxCell>
        <mxCell id="k5f_NmOQ_vTU5sLY7TT8-48" value="" style="endArrow=classic;html=1;rounded=0;entryX=0;entryY=0.5;entryDx=0;entryDy=0;" edge="1" parent="1">
          <mxGeometry width="50" height="50" relative="1" as="geometry">
            <mxPoint x="21" y="1428" as="sourcePoint" />
            <mxPoint x="41" y="1428" as="targetPoint" />
          </mxGeometry>
        </mxCell>
        <mxCell id="k5f_NmOQ_vTU5sLY7TT8-49" value="" style="endArrow=classic;html=1;rounded=0;entryX=0;entryY=0.5;entryDx=0;entryDy=0;" edge="1" parent="1">
          <mxGeometry width="50" height="50" relative="1" as="geometry">
            <mxPoint x="20" y="1511" as="sourcePoint" />
            <mxPoint x="40" y="1511" as="targetPoint" />
          </mxGeometry>
        </mxCell>
        <mxCell id="k5f_NmOQ_vTU5sLY7TT8-50" value="" style="endArrow=classic;html=1;rounded=0;entryX=0;entryY=0.5;entryDx=0;entryDy=0;" edge="1" parent="1">
          <mxGeometry width="50" height="50" relative="1" as="geometry">
            <mxPoint x="20" y="1591" as="sourcePoint" />
            <mxPoint x="40" y="1591" as="targetPoint" />
          </mxGeometry>
        </mxCell>
        <mxCell id="k5f_NmOQ_vTU5sLY7TT8-52" value="" style="endArrow=classic;html=1;rounded=0;entryX=0;entryY=0.5;entryDx=0;entryDy=0;" edge="1" parent="1">
          <mxGeometry width="50" height="50" relative="1" as="geometry">
            <mxPoint x="21" y="1671" as="sourcePoint" />
            <mxPoint x="41" y="1671" as="targetPoint" />
          </mxGeometry>
        </mxCell>
        <mxCell id="k5f_NmOQ_vTU5sLY7TT8-61" value="" style="endArrow=classic;html=1;rounded=0;entryX=0;entryY=0.5;entryDx=0;entryDy=0;" edge="1" parent="1">
          <mxGeometry width="50" height="50" relative="1" as="geometry">
            <mxPoint x="21" y="1900" as="sourcePoint" />
            <mxPoint x="41" y="1900" as="targetPoint" />
          </mxGeometry>
        </mxCell>
        <mxCell id="k5f_NmOQ_vTU5sLY7TT8-62" value="" style="endArrow=classic;html=1;rounded=0;entryX=0;entryY=0.5;entryDx=0;entryDy=0;" edge="1" parent="1">
          <mxGeometry width="50" height="50" relative="1" as="geometry">
            <mxPoint x="21" y="1828" as="sourcePoint" />
            <mxPoint x="41" y="1828" as="targetPoint" />
          </mxGeometry>
        </mxCell>
        <mxCell id="k5f_NmOQ_vTU5sLY7TT8-63" value="" style="endArrow=classic;html=1;rounded=0;entryX=0;entryY=0.5;entryDx=0;entryDy=0;" edge="1" parent="1">
          <mxGeometry width="50" height="50" relative="1" as="geometry">
            <mxPoint x="21" y="1752" as="sourcePoint" />
            <mxPoint x="41" y="1752" as="targetPoint" />
          </mxGeometry>
        </mxCell>
        <mxCell id="k5f_NmOQ_vTU5sLY7TT8-65" value="" style="endArrow=classic;html=1;rounded=0;entryX=0;entryY=0.5;entryDx=0;entryDy=0;" edge="1" parent="1">
          <mxGeometry width="50" height="50" relative="1" as="geometry">
            <mxPoint x="21" y="869" as="sourcePoint" />
            <mxPoint x="41" y="869" as="targetPoint" />
          </mxGeometry>
        </mxCell>
        <mxCell id="k5f_NmOQ_vTU5sLY7TT8-66" value="" style="endArrow=classic;html=1;rounded=0;entryX=0;entryY=0.5;entryDx=0;entryDy=0;" edge="1" parent="1">
          <mxGeometry width="50" height="50" relative="1" as="geometry">
            <mxPoint x="21" y="790" as="sourcePoint" />
            <mxPoint x="41" y="790" as="targetPoint" />
          </mxGeometry>
        </mxCell>
        <mxCell id="k5f_NmOQ_vTU5sLY7TT8-67" value="" style="endArrow=classic;html=1;rounded=0;entryX=0;entryY=0.5;entryDx=0;entryDy=0;" edge="1" parent="1">
          <mxGeometry width="50" height="50" relative="1" as="geometry">
            <mxPoint x="21" y="712" as="sourcePoint" />
            <mxPoint x="41" y="712" as="targetPoint" />
          </mxGeometry>
        </mxCell>
        <mxCell id="k5f_NmOQ_vTU5sLY7TT8-68" value="" style="endArrow=classic;html=1;rounded=0;entryX=0;entryY=0.5;entryDx=0;entryDy=0;" edge="1" parent="1">
          <mxGeometry width="50" height="50" relative="1" as="geometry">
            <mxPoint x="21" y="630" as="sourcePoint" />
            <mxPoint x="41" y="630" as="targetPoint" />
          </mxGeometry>
        </mxCell>
        <mxCell id="k5f_NmOQ_vTU5sLY7TT8-69" value="" style="endArrow=classic;html=1;rounded=0;entryX=0;entryY=0.5;entryDx=0;entryDy=0;" edge="1" parent="1">
          <mxGeometry width="50" height="50" relative="1" as="geometry">
            <mxPoint x="21" y="553" as="sourcePoint" />
            <mxPoint x="41" y="553" as="targetPoint" />
          </mxGeometry>
        </mxCell>
        <mxCell id="k5f_NmOQ_vTU5sLY7TT8-70" value="Factory Order Information" style="rounded=0;whiteSpace=wrap;html=1;fillColor=#ffe6cc;strokeColor=#d79b00;" vertex="1" parent="1">
          <mxGeometry x="241" y="361" width="120" height="60" as="geometry" />
        </mxCell>
        <mxCell id="k5f_NmOQ_vTU5sLY7TT8-71" value="Factory Order Information (CVN)" style="rounded=0;whiteSpace=wrap;html=1;fillColor=#ffe6cc;strokeColor=#d79b00;" vertex="1" parent="1">
          <mxGeometry x="241" y="441" width="120" height="60" as="geometry" />
        </mxCell>
        <mxCell id="k5f_NmOQ_vTU5sLY7TT8-72" value="Manage Unmade Order" style="rounded=0;whiteSpace=wrap;html=1;fillColor=#ffe6cc;strokeColor=#d79b00;" vertex="1" parent="1">
          <mxGeometry x="241" y="521" width="120" height="60" as="geometry" />
        </mxCell>
        <mxCell id="k5f_NmOQ_vTU5sLY7TT8-73" value="Calculate Order Carton" style="rounded=0;whiteSpace=wrap;html=1;fillColor=#ffe6cc;strokeColor=#d79b00;" vertex="1" parent="1">
          <mxGeometry x="241" y="601" width="120" height="60" as="geometry" />
        </mxCell>
        <mxCell id="k5f_NmOQ_vTU5sLY7TT8-74" value="Demand Pull Order Confirmation" style="rounded=0;whiteSpace=wrap;html=1;fillColor=#ffe6cc;strokeColor=#d79b00;" vertex="1" parent="1">
          <mxGeometry x="241" y="681" width="120" height="60" as="geometry" />
        </mxCell>
        <mxCell id="k5f_NmOQ_vTU5sLY7TT8-75" value="Export Divert Order After Production" style="rounded=0;whiteSpace=wrap;html=1;fillColor=#ffe6cc;strokeColor=#d79b00;" vertex="1" parent="1">
          <mxGeometry x="241" y="761" width="120" height="60" as="geometry" />
        </mxCell>
        <mxCell id="k5f_NmOQ_vTU5sLY7TT8-76" value="Production Acknowledge/FG PO Signature Send" style="rounded=0;whiteSpace=wrap;html=1;fillColor=#ffe6cc;strokeColor=#d79b00;" vertex="1" parent="1">
          <mxGeometry x="241" y="841" width="120" height="60" as="geometry" />
        </mxCell>
        <mxCell id="k5f_NmOQ_vTU5sLY7TT8-87" value="Order Employ" style="rounded=0;whiteSpace=wrap;html=1;fillColor=#ffe6cc;strokeColor=#d79b00;" vertex="1" parent="1">
          <mxGeometry x="241" y="1081" width="120" height="60" as="geometry" />
        </mxCell>
        <mxCell id="k5f_NmOQ_vTU5sLY7TT8-88" value="Sub Order Cancel" style="rounded=0;whiteSpace=wrap;html=1;fillColor=#ffe6cc;strokeColor=#d79b00;" vertex="1" parent="1">
          <mxGeometry x="241" y="1001" width="120" height="60" as="geometry" />
        </mxCell>
        <mxCell id="k5f_NmOQ_vTU5sLY7TT8-89" value="Factory Order Information Approved" style="rounded=0;whiteSpace=wrap;html=1;fillColor=#ffe6cc;strokeColor=#d79b00;" vertex="1" parent="1">
          <mxGeometry x="241" y="921" width="120" height="60" as="geometry" />
        </mxCell>
        <mxCell id="k5f_NmOQ_vTU5sLY7TT8-90" value="" style="endArrow=classic;html=1;rounded=0;entryX=0;entryY=0.5;entryDx=0;entryDy=0;" edge="1" parent="1">
          <mxGeometry width="50" height="50" relative="1" as="geometry">
            <mxPoint x="221" y="393" as="sourcePoint" />
            <mxPoint x="241" y="393" as="targetPoint" />
          </mxGeometry>
        </mxCell>
        <mxCell id="k5f_NmOQ_vTU5sLY7TT8-91" value="" style="endArrow=classic;html=1;rounded=0;entryX=0;entryY=0.5;entryDx=0;entryDy=0;" edge="1" parent="1">
          <mxGeometry width="50" height="50" relative="1" as="geometry">
            <mxPoint x="222" y="469" as="sourcePoint" />
            <mxPoint x="242" y="469" as="targetPoint" />
          </mxGeometry>
        </mxCell>
        <mxCell id="k5f_NmOQ_vTU5sLY7TT8-92" value="" style="endArrow=classic;html=1;rounded=0;entryX=0;entryY=0.5;entryDx=0;entryDy=0;" edge="1" parent="1">
          <mxGeometry width="50" height="50" relative="1" as="geometry">
            <mxPoint x="222" y="1029" as="sourcePoint" />
            <mxPoint x="242" y="1029" as="targetPoint" />
          </mxGeometry>
        </mxCell>
        <mxCell id="k5f_NmOQ_vTU5sLY7TT8-93" value="" style="endArrow=classic;html=1;rounded=0;entryX=0;entryY=0.5;entryDx=0;entryDy=0;" edge="1" parent="1">
          <mxGeometry width="50" height="50" relative="1" as="geometry">
            <mxPoint x="222" y="951" as="sourcePoint" />
            <mxPoint x="242" y="951" as="targetPoint" />
          </mxGeometry>
        </mxCell>
        <mxCell id="k5f_NmOQ_vTU5sLY7TT8-94" value="" style="endArrow=classic;html=1;rounded=0;entryX=0;entryY=0.5;entryDx=0;entryDy=0;" edge="1" parent="1">
          <mxGeometry width="50" height="50" relative="1" as="geometry">
            <mxPoint x="222" y="1109" as="sourcePoint" />
            <mxPoint x="242" y="1109" as="targetPoint" />
          </mxGeometry>
        </mxCell>
        <mxCell id="k5f_NmOQ_vTU5sLY7TT8-105" value="" style="endArrow=classic;html=1;rounded=0;entryX=0;entryY=0.5;entryDx=0;entryDy=0;" edge="1" parent="1">
          <mxGeometry width="50" height="50" relative="1" as="geometry">
            <mxPoint x="222" y="870" as="sourcePoint" />
            <mxPoint x="242" y="870" as="targetPoint" />
          </mxGeometry>
        </mxCell>
        <mxCell id="k5f_NmOQ_vTU5sLY7TT8-106" value="" style="endArrow=classic;html=1;rounded=0;entryX=0;entryY=0.5;entryDx=0;entryDy=0;" edge="1" parent="1">
          <mxGeometry width="50" height="50" relative="1" as="geometry">
            <mxPoint x="222" y="791" as="sourcePoint" />
            <mxPoint x="242" y="791" as="targetPoint" />
          </mxGeometry>
        </mxCell>
        <mxCell id="k5f_NmOQ_vTU5sLY7TT8-107" value="" style="endArrow=classic;html=1;rounded=0;entryX=0;entryY=0.5;entryDx=0;entryDy=0;" edge="1" parent="1">
          <mxGeometry width="50" height="50" relative="1" as="geometry">
            <mxPoint x="222" y="713" as="sourcePoint" />
            <mxPoint x="242" y="713" as="targetPoint" />
          </mxGeometry>
        </mxCell>
        <mxCell id="k5f_NmOQ_vTU5sLY7TT8-108" value="" style="endArrow=classic;html=1;rounded=0;entryX=0;entryY=0.5;entryDx=0;entryDy=0;" edge="1" parent="1">
          <mxGeometry width="50" height="50" relative="1" as="geometry">
            <mxPoint x="222" y="631" as="sourcePoint" />
            <mxPoint x="242" y="631" as="targetPoint" />
          </mxGeometry>
        </mxCell>
        <mxCell id="k5f_NmOQ_vTU5sLY7TT8-109" value="" style="endArrow=classic;html=1;rounded=0;entryX=0;entryY=0.5;entryDx=0;entryDy=0;" edge="1" parent="1">
          <mxGeometry width="50" height="50" relative="1" as="geometry">
            <mxPoint x="222" y="554" as="sourcePoint" />
            <mxPoint x="242" y="554" as="targetPoint" />
          </mxGeometry>
        </mxCell>
        <mxCell id="k5f_NmOQ_vTU5sLY7TT8-110" value="" style="endArrow=none;html=1;rounded=0;" edge="1" parent="1">
          <mxGeometry width="50" height="50" relative="1" as="geometry">
            <mxPoint x="222" y="1110" as="sourcePoint" />
            <mxPoint x="222" y="310" as="targetPoint" />
          </mxGeometry>
        </mxCell>
        <mxCell id="k5f_NmOQ_vTU5sLY7TT8-111" value="" style="endArrow=classic;html=1;rounded=0;exitX=0;exitY=0.5;exitDx=0;exitDy=0;" edge="1" parent="1">
          <mxGeometry width="50" height="50" relative="1" as="geometry">
            <mxPoint x="241" y="310" as="sourcePoint" />
            <mxPoint x="221" y="310" as="targetPoint" />
          </mxGeometry>
        </mxCell>
        <mxCell id="k5f_NmOQ_vTU5sLY7TT8-112" value="BOM Automate" style="rounded=0;whiteSpace=wrap;html=1;fillColor=#ffe6cc;strokeColor=#d79b00;" vertex="1" parent="1">
          <mxGeometry x="480" y="361" width="120" height="60" as="geometry" />
        </mxCell>
        <mxCell id="k5f_NmOQ_vTU5sLY7TT8-113" value="BOM Sheet By Style Information" style="rounded=0;whiteSpace=wrap;html=1;fillColor=#ffe6cc;strokeColor=#d79b00;" vertex="1" parent="1">
          <mxGeometry x="480" y="441" width="120" height="60" as="geometry" />
        </mxCell>
        <mxCell id="k5f_NmOQ_vTU5sLY7TT8-114" value="BOM Listing" style="rounded=0;whiteSpace=wrap;html=1;fillColor=#ffe6cc;strokeColor=#d79b00;" vertex="1" parent="1">
          <mxGeometry x="480" y="521" width="120" height="60" as="geometry" />
        </mxCell>
        <mxCell id="k5f_NmOQ_vTU5sLY7TT8-115" value="BOM Listing (Color &amp;amp; Size)" style="rounded=0;whiteSpace=wrap;html=1;fillColor=#ffe6cc;strokeColor=#d79b00;" vertex="1" parent="1">
          <mxGeometry x="480" y="601" width="120" height="60" as="geometry" />
        </mxCell>
        <mxCell id="k5f_NmOQ_vTU5sLY7TT8-116" value="Product Part By Style Management" style="rounded=0;whiteSpace=wrap;html=1;fillColor=#ffe6cc;strokeColor=#d79b00;" vertex="1" parent="1">
          <mxGeometry x="480" y="681" width="120" height="60" as="geometry" />
        </mxCell>
        <mxCell id="k5f_NmOQ_vTU5sLY7TT8-117" value="Material Purchased Requirement Generate(V.2)" style="rounded=0;whiteSpace=wrap;html=1;fillColor=#ffe6cc;strokeColor=#d79b00;" vertex="1" parent="1">
          <mxGeometry x="480" y="761" width="120" height="60" as="geometry" />
        </mxCell>
        <mxCell id="k5f_NmOQ_vTU5sLY7TT8-118" value="Material Purchased Requirement History Tracking" style="rounded=0;whiteSpace=wrap;html=1;fillColor=#ffe6cc;strokeColor=#d79b00;" vertex="1" parent="1">
          <mxGeometry x="480" y="841" width="120" height="60" as="geometry" />
        </mxCell>
        <mxCell id="k5f_NmOQ_vTU5sLY7TT8-119" value="BOM File PDF Tracking" style="rounded=0;whiteSpace=wrap;html=1;fillColor=#ffe6cc;strokeColor=#d79b00;" vertex="1" parent="1">
          <mxGeometry x="480" y="1081" width="120" height="60" as="geometry" />
        </mxCell>
        <mxCell id="k5f_NmOQ_vTU5sLY7TT8-120" value="User Export To Optiplan Tracking" style="rounded=0;whiteSpace=wrap;html=1;fillColor=#ffe6cc;strokeColor=#d79b00;" vertex="1" parent="1">
          <mxGeometry x="480" y="1001" width="120" height="60" as="geometry" />
        </mxCell>
        <mxCell id="k5f_NmOQ_vTU5sLY7TT8-121" value="Export Factory Order No. To Optiplan" style="rounded=0;whiteSpace=wrap;html=1;fillColor=#ffe6cc;strokeColor=#d79b00;" vertex="1" parent="1">
          <mxGeometry x="480" y="921" width="120" height="60" as="geometry" />
        </mxCell>
        <mxCell id="k5f_NmOQ_vTU5sLY7TT8-122" value="" style="endArrow=classic;html=1;rounded=0;entryX=0;entryY=0.5;entryDx=0;entryDy=0;" edge="1" parent="1">
          <mxGeometry width="50" height="50" relative="1" as="geometry">
            <mxPoint x="460" y="393" as="sourcePoint" />
            <mxPoint x="480" y="393" as="targetPoint" />
          </mxGeometry>
        </mxCell>
        <mxCell id="k5f_NmOQ_vTU5sLY7TT8-123" value="" style="endArrow=classic;html=1;rounded=0;entryX=0;entryY=0.5;entryDx=0;entryDy=0;" edge="1" parent="1">
          <mxGeometry width="50" height="50" relative="1" as="geometry">
            <mxPoint x="461" y="469" as="sourcePoint" />
            <mxPoint x="481" y="469" as="targetPoint" />
          </mxGeometry>
        </mxCell>
        <mxCell id="k5f_NmOQ_vTU5sLY7TT8-124" value="" style="endArrow=classic;html=1;rounded=0;entryX=0;entryY=0.5;entryDx=0;entryDy=0;" edge="1" parent="1">
          <mxGeometry width="50" height="50" relative="1" as="geometry">
            <mxPoint x="461" y="1029" as="sourcePoint" />
            <mxPoint x="481" y="1029" as="targetPoint" />
          </mxGeometry>
        </mxCell>
        <mxCell id="k5f_NmOQ_vTU5sLY7TT8-125" value="" style="endArrow=classic;html=1;rounded=0;entryX=0;entryY=0.5;entryDx=0;entryDy=0;" edge="1" parent="1">
          <mxGeometry width="50" height="50" relative="1" as="geometry">
            <mxPoint x="461" y="951" as="sourcePoint" />
            <mxPoint x="481" y="951" as="targetPoint" />
          </mxGeometry>
        </mxCell>
        <mxCell id="k5f_NmOQ_vTU5sLY7TT8-126" value="" style="endArrow=classic;html=1;rounded=0;entryX=0;entryY=0.5;entryDx=0;entryDy=0;" edge="1" parent="1">
          <mxGeometry width="50" height="50" relative="1" as="geometry">
            <mxPoint x="461" y="1109" as="sourcePoint" />
            <mxPoint x="481" y="1109" as="targetPoint" />
          </mxGeometry>
        </mxCell>
        <mxCell id="k5f_NmOQ_vTU5sLY7TT8-127" value="" style="endArrow=classic;html=1;rounded=0;entryX=0;entryY=0.5;entryDx=0;entryDy=0;" edge="1" parent="1">
          <mxGeometry width="50" height="50" relative="1" as="geometry">
            <mxPoint x="461" y="870" as="sourcePoint" />
            <mxPoint x="481" y="870" as="targetPoint" />
          </mxGeometry>
        </mxCell>
        <mxCell id="k5f_NmOQ_vTU5sLY7TT8-128" value="" style="endArrow=classic;html=1;rounded=0;entryX=0;entryY=0.5;entryDx=0;entryDy=0;" edge="1" parent="1">
          <mxGeometry width="50" height="50" relative="1" as="geometry">
            <mxPoint x="461" y="791" as="sourcePoint" />
            <mxPoint x="481" y="791" as="targetPoint" />
          </mxGeometry>
        </mxCell>
        <mxCell id="k5f_NmOQ_vTU5sLY7TT8-129" value="" style="endArrow=classic;html=1;rounded=0;entryX=0;entryY=0.5;entryDx=0;entryDy=0;" edge="1" parent="1">
          <mxGeometry width="50" height="50" relative="1" as="geometry">
            <mxPoint x="461" y="713" as="sourcePoint" />
            <mxPoint x="481" y="713" as="targetPoint" />
          </mxGeometry>
        </mxCell>
        <mxCell id="k5f_NmOQ_vTU5sLY7TT8-130" value="" style="endArrow=classic;html=1;rounded=0;entryX=0;entryY=0.5;entryDx=0;entryDy=0;" edge="1" parent="1">
          <mxGeometry width="50" height="50" relative="1" as="geometry">
            <mxPoint x="461" y="631" as="sourcePoint" />
            <mxPoint x="481" y="631" as="targetPoint" />
          </mxGeometry>
        </mxCell>
        <mxCell id="k5f_NmOQ_vTU5sLY7TT8-131" value="" style="endArrow=classic;html=1;rounded=0;entryX=0;entryY=0.5;entryDx=0;entryDy=0;" edge="1" parent="1">
          <mxGeometry width="50" height="50" relative="1" as="geometry">
            <mxPoint x="461" y="554" as="sourcePoint" />
            <mxPoint x="481" y="554" as="targetPoint" />
          </mxGeometry>
        </mxCell>
        <mxCell id="k5f_NmOQ_vTU5sLY7TT8-132" value="" style="endArrow=classic;html=1;rounded=0;exitX=0;exitY=0.5;exitDx=0;exitDy=0;" edge="1" parent="1">
          <mxGeometry width="50" height="50" relative="1" as="geometry">
            <mxPoint x="478" y="309" as="sourcePoint" />
            <mxPoint x="458" y="309" as="targetPoint" />
          </mxGeometry>
        </mxCell>
        <mxCell id="k5f_NmOQ_vTU5sLY7TT8-133" value="Style Part Embellishment Tracking" style="rounded=0;whiteSpace=wrap;html=1;fillColor=#ffe6cc;strokeColor=#d79b00;" vertex="1" parent="1">
          <mxGeometry x="480" y="1160" width="120" height="60" as="geometry" />
        </mxCell>
        <mxCell id="k5f_NmOQ_vTU5sLY7TT8-134" value="" style="endArrow=classic;html=1;rounded=0;entryX=0;entryY=0.5;entryDx=0;entryDy=0;" edge="1" parent="1">
          <mxGeometry width="50" height="50" relative="1" as="geometry">
            <mxPoint x="460" y="1189" as="sourcePoint" />
            <mxPoint x="480" y="1189" as="targetPoint" />
          </mxGeometry>
        </mxCell>
        <mxCell id="k5f_NmOQ_vTU5sLY7TT8-135" value="" style="endArrow=none;html=1;rounded=0;" edge="1" parent="1">
          <mxGeometry width="50" height="50" relative="1" as="geometry">
            <mxPoint x="459" y="1190" as="sourcePoint" />
            <mxPoint x="459" y="310" as="targetPoint" />
          </mxGeometry>
        </mxCell>
        <mxCell id="k5f_NmOQ_vTU5sLY7TT8-136" value="Cost Sheet Tracking" style="rounded=0;whiteSpace=wrap;html=1;fillColor=#ffe6cc;strokeColor=#d79b00;" vertex="1" parent="1">
          <mxGeometry x="680" y="361.5" width="120" height="60" as="geometry" />
        </mxCell>
        <mxCell id="k5f_NmOQ_vTU5sLY7TT8-137" value="Order Listing Tracking" style="rounded=0;whiteSpace=wrap;html=1;fillColor=#ffe6cc;strokeColor=#d79b00;" vertex="1" parent="1">
          <mxGeometry x="680" y="441.5" width="120" height="60" as="geometry" />
        </mxCell>
        <mxCell id="k5f_NmOQ_vTU5sLY7TT8-138" value="Revised History Tracking" style="rounded=0;whiteSpace=wrap;html=1;fillColor=#ffe6cc;strokeColor=#d79b00;" vertex="1" parent="1">
          <mxGeometry x="680" y="521.5" width="120" height="60" as="geometry" />
        </mxCell>
        <mxCell id="k5f_NmOQ_vTU5sLY7TT8-139" value="FOB Purchased Tracking" style="rounded=0;whiteSpace=wrap;html=1;fillColor=#ffe6cc;strokeColor=#d79b00;" vertex="1" parent="1">
          <mxGeometry x="680" y="601.5" width="120" height="60" as="geometry" />
        </mxCell>
        <mxCell id="k5f_NmOQ_vTU5sLY7TT8-140" value="Order Divert History Tracking" style="rounded=0;whiteSpace=wrap;html=1;fillColor=#ffe6cc;strokeColor=#d79b00;" vertex="1" parent="1">
          <mxGeometry x="680" y="681.5" width="120" height="60" as="geometry" />
        </mxCell>
        <mxCell id="k5f_NmOQ_vTU5sLY7TT8-141" value="Order Divert History" style="rounded=0;whiteSpace=wrap;html=1;fillColor=#ffe6cc;strokeColor=#d79b00;" vertex="1" parent="1">
          <mxGeometry x="680" y="761.5" width="120" height="60" as="geometry" />
        </mxCell>
        <mxCell id="k5f_NmOQ_vTU5sLY7TT8-142" value="Customer Order Value Classification History" style="rounded=0;whiteSpace=wrap;html=1;fillColor=#ffe6cc;strokeColor=#d79b00;" vertex="1" parent="1">
          <mxGeometry x="680" y="922.5" width="120" height="60" as="geometry" />
        </mxCell>
        <mxCell id="k5f_NmOQ_vTU5sLY7TT8-143" value="Export Breakdown To Intellocut" style="rounded=0;whiteSpace=wrap;html=1;fillColor=#ffe6cc;strokeColor=#d79b00;" vertex="1" parent="1">
          <mxGeometry x="680" y="1162.5" width="120" height="60" as="geometry" />
        </mxCell>
        <mxCell id="k5f_NmOQ_vTU5sLY7TT8-144" value="Sub Order Cancel Tracking" style="rounded=0;whiteSpace=wrap;html=1;fillColor=#ffe6cc;strokeColor=#d79b00;" vertex="1" parent="1">
          <mxGeometry x="680" y="1082.5" width="120" height="60" as="geometry" />
        </mxCell>
        <mxCell id="k5f_NmOQ_vTU5sLY7TT8-145" value="Demand Pull Order Tracking" style="rounded=0;whiteSpace=wrap;html=1;fillColor=#ffe6cc;strokeColor=#d79b00;" vertex="1" parent="1">
          <mxGeometry x="680" y="1002.5" width="120" height="60" as="geometry" />
        </mxCell>
        <mxCell id="k5f_NmOQ_vTU5sLY7TT8-146" value="" style="endArrow=classic;html=1;rounded=0;entryX=0;entryY=0.5;entryDx=0;entryDy=0;" edge="1" parent="1">
          <mxGeometry width="50" height="50" relative="1" as="geometry">
            <mxPoint x="660" y="393.5" as="sourcePoint" />
            <mxPoint x="680" y="393.5" as="targetPoint" />
          </mxGeometry>
        </mxCell>
        <mxCell id="k5f_NmOQ_vTU5sLY7TT8-147" value="" style="endArrow=classic;html=1;rounded=0;entryX=0;entryY=0.5;entryDx=0;entryDy=0;" edge="1" parent="1">
          <mxGeometry width="50" height="50" relative="1" as="geometry">
            <mxPoint x="661" y="469.5" as="sourcePoint" />
            <mxPoint x="681" y="469.5" as="targetPoint" />
          </mxGeometry>
        </mxCell>
        <mxCell id="k5f_NmOQ_vTU5sLY7TT8-148" value="" style="endArrow=classic;html=1;rounded=0;entryX=0;entryY=0.5;entryDx=0;entryDy=0;" edge="1" parent="1">
          <mxGeometry width="50" height="50" relative="1" as="geometry">
            <mxPoint x="661" y="1029.5" as="sourcePoint" />
            <mxPoint x="681" y="1029.5" as="targetPoint" />
          </mxGeometry>
        </mxCell>
        <mxCell id="k5f_NmOQ_vTU5sLY7TT8-149" value="" style="endArrow=classic;html=1;rounded=0;entryX=0;entryY=0.5;entryDx=0;entryDy=0;" edge="1" parent="1">
          <mxGeometry width="50" height="50" relative="1" as="geometry">
            <mxPoint x="661" y="951.5" as="sourcePoint" />
            <mxPoint x="681" y="951.5" as="targetPoint" />
          </mxGeometry>
        </mxCell>
        <mxCell id="k5f_NmOQ_vTU5sLY7TT8-150" value="" style="endArrow=classic;html=1;rounded=0;entryX=0;entryY=0.5;entryDx=0;entryDy=0;" edge="1" parent="1">
          <mxGeometry width="50" height="50" relative="1" as="geometry">
            <mxPoint x="661" y="1109.5" as="sourcePoint" />
            <mxPoint x="681" y="1109.5" as="targetPoint" />
          </mxGeometry>
        </mxCell>
        <mxCell id="k5f_NmOQ_vTU5sLY7TT8-151" value="" style="endArrow=classic;html=1;rounded=0;entryX=0;entryY=0.5;entryDx=0;entryDy=0;" edge="1" parent="1">
          <mxGeometry width="50" height="50" relative="1" as="geometry">
            <mxPoint x="661" y="870.5" as="sourcePoint" />
            <mxPoint x="681" y="870.5" as="targetPoint" />
          </mxGeometry>
        </mxCell>
        <mxCell id="k5f_NmOQ_vTU5sLY7TT8-152" value="" style="endArrow=classic;html=1;rounded=0;entryX=0;entryY=0.5;entryDx=0;entryDy=0;" edge="1" parent="1">
          <mxGeometry width="50" height="50" relative="1" as="geometry">
            <mxPoint x="661" y="791.5" as="sourcePoint" />
            <mxPoint x="681" y="791.5" as="targetPoint" />
          </mxGeometry>
        </mxCell>
        <mxCell id="k5f_NmOQ_vTU5sLY7TT8-153" value="" style="endArrow=classic;html=1;rounded=0;entryX=0;entryY=0.5;entryDx=0;entryDy=0;" edge="1" parent="1">
          <mxGeometry width="50" height="50" relative="1" as="geometry">
            <mxPoint x="661" y="713.5" as="sourcePoint" />
            <mxPoint x="681" y="713.5" as="targetPoint" />
          </mxGeometry>
        </mxCell>
        <mxCell id="k5f_NmOQ_vTU5sLY7TT8-154" value="" style="endArrow=classic;html=1;rounded=0;entryX=0;entryY=0.5;entryDx=0;entryDy=0;" edge="1" parent="1">
          <mxGeometry width="50" height="50" relative="1" as="geometry">
            <mxPoint x="661" y="631.5" as="sourcePoint" />
            <mxPoint x="681" y="631.5" as="targetPoint" />
          </mxGeometry>
        </mxCell>
        <mxCell id="k5f_NmOQ_vTU5sLY7TT8-155" value="" style="endArrow=classic;html=1;rounded=0;entryX=0;entryY=0.5;entryDx=0;entryDy=0;" edge="1" parent="1">
          <mxGeometry width="50" height="50" relative="1" as="geometry">
            <mxPoint x="661" y="554.5" as="sourcePoint" />
            <mxPoint x="681" y="554.5" as="targetPoint" />
          </mxGeometry>
        </mxCell>
        <mxCell id="k5f_NmOQ_vTU5sLY7TT8-156" value="Production Leadtime Tracking" style="rounded=0;whiteSpace=wrap;html=1;fillColor=#ffe6cc;strokeColor=#d79b00;" vertex="1" parent="1">
          <mxGeometry x="680" y="1241.5" width="120" height="60" as="geometry" />
        </mxCell>
        <mxCell id="k5f_NmOQ_vTU5sLY7TT8-157" value="" style="endArrow=classic;html=1;rounded=0;entryX=0;entryY=0.5;entryDx=0;entryDy=0;" edge="1" parent="1">
          <mxGeometry width="50" height="50" relative="1" as="geometry">
            <mxPoint x="660" y="1189.5" as="sourcePoint" />
            <mxPoint x="680" y="1189.5" as="targetPoint" />
          </mxGeometry>
        </mxCell>
        <mxCell id="k5f_NmOQ_vTU5sLY7TT8-158" value="" style="endArrow=none;html=1;rounded=0;" edge="1" parent="1">
          <mxGeometry width="50" height="50" relative="1" as="geometry">
            <mxPoint x="660" y="1270" as="sourcePoint" />
            <mxPoint x="660" y="309" as="targetPoint" />
          </mxGeometry>
        </mxCell>
        <mxCell id="k5f_NmOQ_vTU5sLY7TT8-159" value="Customer Order Worksheet" style="rounded=0;whiteSpace=wrap;html=1;fillColor=#ffe6cc;strokeColor=#d79b00;" vertex="1" parent="1">
          <mxGeometry x="681" y="840.5" width="120" height="60" as="geometry" />
        </mxCell>
        <mxCell id="k5f_NmOQ_vTU5sLY7TT8-160" value="" style="endArrow=classic;html=1;rounded=0;entryX=0;entryY=0.5;entryDx=0;entryDy=0;" edge="1" parent="1">
          <mxGeometry width="50" height="50" relative="1" as="geometry">
            <mxPoint x="660" y="1269.5" as="sourcePoint" />
            <mxPoint x="680" y="1269.5" as="targetPoint" />
          </mxGeometry>
        </mxCell>
        <mxCell id="k5f_NmOQ_vTU5sLY7TT8-161" value="" style="endArrow=classic;html=1;rounded=0;exitX=0;exitY=0.5;exitDx=0;exitDy=0;" edge="1" parent="1">
          <mxGeometry width="50" height="50" relative="1" as="geometry">
            <mxPoint x="678" y="309" as="sourcePoint" />
            <mxPoint x="658" y="309" as="targetPoint" />
          </mxGeometry>
        </mxCell>
      </root>
    </mxGraphModel>
  </diagram>
</mxfile>
